<?xml version="1.0" encoding="UTF-8"?>
<svg id="Layer_1" xmlns="http://www.w3.org/2000/svg" version="1.1" viewBox="0 0 24 24">
  <!-- Generator: Adobe Illustrator 29.1.0, SVG Export Plug-In . SVG Version: 2.1.0 Build 142)  -->
  <defs>
    <style>
      .st0 {
        fill: none;
      }
    </style>
  </defs>
  <path class="st0" d="M0,0h24v24H0V0Z"/>
  <path d="M11.8,22c-5.2-.1-9.4-4.3-9.7-9.4v-.3l9.7,9.8h0ZM12,2c3.3,0,6.3,1.6,8.2,4.3l-1.6,1.1c-2.5-3.6-7.5-4.5-11.1-2-1.3.9-2.3,2.2-2.9,3.7l10.3,10.3c2.4-.9,4.2-3,4.9-5.5h-4.2v-2h6.5c0,4.7-3.3,8.7-7.7,9.7L2.4,9.6C3.4,5.2,7.4,1.9,12.1,1.9h0Z"/>
</svg>