<?xml version="1.0" encoding="UTF-8"?>
<svg id="Layer_1" xmlns="http://www.w3.org/2000/svg" version="1.1" viewBox="0 0 24 24">
  <!-- Generator: Adobe Illustrator 29.1.0, SVG Export Plug-In . SVG Version: 2.1.0 Build 142)  -->
  <defs>
    <style>
      .st0 {
        fill-rule: evenodd;
      }
    </style>
  </defs>
  <g id="Page-1">
    <g id="Dribbble-Light-Preview">
      <g id="icons">
        <path id="spotify-_x5B__x23_162_x5D_" class="st0" d="M19.1,10.6c-3.9-2.3-10.2-2.5-13.9-1.4-.6.2-1.2-.2-1.4-.7-.2-.6.2-1.2.7-1.4,4.2-1.3,11.3-1,15.7,1.6.5.3.7,1,.4,1.5-.3.5-1,.7-1.5.4h0ZM19,14c-.3.4-.8.6-1.3.3-3.2-2-8.1-2.6-12-1.4-.5.1-1-.1-1.2-.6-.1-.5.1-1,.6-1.2,4.4-1.3,9.8-.7,13.5,1.6.4.3.6.8.3,1.3h.1ZM17.5,17.3c-.2.4-.7.5-1,.2-2.8-1.7-6.4-2.1-10.5-1.2-.4,0-.8-.2-.9-.6,0-.4.2-.8.6-.9,4.6-1,8.5-.6,11.7,1.3.4.2.5.7.2,1h0v.2ZM12,0C5.4,0,0,5.4,0,12s5.4,12,12,12,12-5.4,12-12S18.6,0,12,0h0Z"/>
      </g>
    </g>
  </g>
</svg>