<?xml version="1.0" encoding="UTF-8"?>
<svg xmlns="http://www.w3.org/2000/svg" xmlns:xlink="http://www.w3.org/1999/xlink" viewBox="0 0 2000 2400">
  <defs>
    <style>
      .cls-1 {
        fill: none;
      }

      .cls-2 {
        clip-path: url(#clippath);
      }

      .cls-3 {
        fill: #f7f7f7;
      }

      .cls-4 {
        fill: #ebd8c5;
      }

      .cls-5 {
        fill: #ededed;
      }

      .cls-6 {
        fill: #fff1c9;
      }

      .cls-7 {
        fill: #fff;
      }

      .cls-8 {
        fill: #fff7e0;
      }

      .cls-9 {
        fill: #edb300;
      }

      .cls-10 {
        fill: #6b5a50;
      }

      .cls-11 {
        fill: #826d56;
      }

      .cls-12 {
        fill: #856b5c;
      }

      .cls-13 {
        fill: #b59a7d;
      }

      .cls-14 {
        fill: #9e9b94;
      }

      .cls-15 {
        fill: #8c7568;
      }

      .cls-16 {
        fill: #917a60;
      }

      .cls-17 {
        fill: #c2c2c2;
      }

      .cls-18 {
        fill: #b3b3b3;
      }

      .cls-19 {
        fill: #66564c;
      }

      .cls-20 {
        fill: #736257;
      }

      .cls-21 {
        fill: #a88f74;
      }

      .cls-22 {
        fill: #ab8f71;
      }

      .cls-23 {
        fill: #ab9074;
      }

      .cls-24 {
        fill: #ababab;
      }

      .cls-25 {
        fill: #ccc;
      }

      .cls-26 {
        fill: #dedede;
      }

      .cls-27 {
        fill: #c4ac93;
      }

      .cls-28 {
        fill: #c4a788;
      }

      .cls-29 {
        fill: #c79600;
      }

      .cls-30 {
        fill: #d6d6d6;
      }

      .cls-31 {
        fill: #d4b89c;
      }

      .cls-32 {
        fill: #e0e0e0;
      }

      .cls-33 {
        fill: #211d1a;
      }

      .cls-34 {
        fill: #87725c;
      }

      .cls-35 {
        fill: #4d4846;
      }

      .cls-36 {
        fill: #e6e1d6;
        opacity: .7;
      }
    </style>
    <clipPath id="clippath">
      <path class="cls-1" d="m1020.09,245.18c-123.99,0-240.34,16.3-327.62,45.89-80.86,27.42-127.24,497.69-127.24,532.61s46.38,70.67,127.24,98.09c87.28,29.59,203.63,45.89,327.62,45.89s240.34-16.3,327.61-45.89c80.86-27.42,127.24-63.17,127.24-98.09s-46.38-505.19-127.24-532.61c-87.28-29.59-203.63-45.89-327.61-45.89Z"/>
    </clipPath>
  </defs>
  <rect class="cls-7" width="2000" height="2400"/>
  <path class="cls-32" d="m1676,1818.44c235.18,132.59,233.42,352.48-201.06,364.11-434.48,11.63-433.4-192.79-907.85-92-235.93,50.12-514.47-78.53-351.14-230.09,163.33-151.56,398.97-258.71,546.95-241.22s390.4-95.48,913.1,199.2Z"/>
  <g>
    <path class="cls-24" d="m1020.09,853.17h-454.85l15.37,115.69c1.91,14.41,9.72,27.38,21.55,35.82l6.16,38.66h0c-9.94,3.83-9.29,14.52-6.16,33.55,3.13,19.03,7.18,25.45,19.97,32.14l5.88,36.96-6.12,7.35c-7.68,9.22-7.19,44.27-5.61,56.16l100.09,561.27,303.72,6.33h303.67l100.15-567.6c1.58-11.89,2.07-46.94-5.61-56.16l-6.12-7.35,5.88-36.96c12.79-6.69,16.84-13.11,19.97-32.14,3.13-19.03,3.78-29.71-6.16-33.55h0s6.16-38.66,6.16-38.66c11.83-8.44,19.63-21.41,21.55-35.82l15.37-115.69h-454.85Z"/>
    <ellipse class="cls-24" cx="1020.09" cy="823.68" rx="470.36" ry="159.48"/>
    <path class="cls-24" d="m716.37,1770.76c-10.77-63.85,136.18-110.92,303.75-110.92s314.44,53.42,303.53,117.25c-10.8,63.16-135.97,117.25-303.53,117.25s-292.71-58.13-303.75-123.58Z"/>
    <path class="cls-25" d="m1029.01,1119.27c-168.15,0-325.8-28.77-420.7-75.93l-6.15-38.66c86.64,51.52,250.2,83.52,426.86,83.52,164.01,0,317.73-37.86,409.01-83.52l-6.16,38.66c-96.54,42.13-245.46,75.93-402.86,75.93Z"/>
    <path class="cls-25" d="m1412.17,1145.98l5.88-36.96c-92.57,40.13-236.31,71.48-389.05,71.48-163.91,0-316.51-27.57-406.89-72.7l5.88,36.96c96.16,41.72,244,66.81,401,66.81,147.16,0,286.87-28.34,383.16-65.59Z"/>
    <g>
      <path class="cls-25" d="m722.3,1215.54c-23.35-6.76-44.83-14.31-64.12-22.52,36.52,213.81,70.1,402.97,100.91,598.64,13.33,9.74,29.47,18.75,48.01,26.79-25.83-197.19-54.05-387.78-84.8-602.91Z"/>
      <path class="cls-25" d="m853.08,1242.32c-22.92-3.08-45-6.77-66.04-11.03,24.4,215.27,46.76,406.23,67.19,603.9,14.86,4.28,30.68,8,47.34,11.1-14.73-197.84-30.87-388.83-48.49-603.97Z"/>
      <path class="cls-25" d="m996.58,1855.92c-2.89-197.77-6.06-388.5-9.53-603.21-22.96-.56-45.46-1.71-67.39-3.4,10.64,214.83,20.37,405.64,29.25,603.42,15.87,1.61,31.77,2.67,47.68,3.19Z"/>
      <path class="cls-25" d="m1118.92,1249.44c-21.94,1.66-44.44,2.78-67.39,3.31-3.47,214.69-6.64,405.41-9.53,603.17,15.91-.52,31.81-1.58,47.68-3.19,8.87-197.75,18.6-388.51,29.24-603.29Z"/>
      <path class="cls-25" d="m1251.49,1231.63c-21.05,4.22-43.11,7.87-66.02,10.92-17.62,215.06-33.75,405.98-48.48,603.76,15.79-2.7,31.54-5.94,47.2-9.74,20.46-197.98,42.86-389.3,67.3-604.94Z"/>
      <path class="cls-25" d="m1380.27,1193.75c-19.31,8.12-40.76,15.58-64.07,22.27-30.89,216.12-59.23,407.64-85.15,605.66,18.29-7.34,34.23-15.61,47.57-24.56,31.01-197.11,64.84-387.84,101.65-603.37Z"/>
    </g>
    <path class="cls-5" d="m1020.09,983.16c170.83,0,320.39-30.88,402.77-77.08-23.47-27.36-69.58-78.1-104.92-98.14-28.18-15.98-110.48-18.13-194.09-52.98-78.14-32.57-152.86,32.31-202.41,49.33-49.55,17.03-100.34,1.06-168.95,19.38-52.69,14.07-92.97,43.04-130.49,84.97,83.29,44.77,230.43,74.52,398.09,74.52Z"/>
    <path class="cls-30" d="m1020.09,998.67c-127.29,0-247.17-16.88-337.57-47.53-95.63-32.42-148.29-77.69-148.29-127.46s52.66-95.03,148.29-127.46c90.4-30.65,210.29-47.53,337.57-47.53s247.17,16.88,337.57,47.53c95.63,32.42,148.29,77.69,148.29,127.46s-52.66,95.03-148.29,127.46c-90.4,30.65-210.29,47.53-337.57,47.53Zm0-318.96c-123.99,0-240.34,16.3-327.62,45.89-80.86,27.42-127.24,63.17-127.24,98.08s46.38,70.67,127.24,98.09c87.28,29.59,203.63,45.89,327.62,45.89s240.34-16.3,327.61-45.89c80.86-27.42,127.24-63.17,127.24-98.09s-46.38-70.67-127.24-98.08c-87.28-29.59-203.63-45.89-327.61-45.89Z"/>
  </g>
  <g class="cls-2">
    <g>
      <g>
        <path class="cls-22" d="m1405.33,941.36l-.03-.03c12.03,1.51,24.41,1.41,37.1-.63-7.4-70.39-27.45-54.18-78.07-143.15-20.81-36.58-24.62-76.18-21.16-114.85,5.82-65.09,2.78-123.4-40.75-93.58-36.32,24.89-72.11,53.94-81.2,76.77-7.85,19.73-5.96,50.33,3.78,84.1h0s5.35,58.56,5.35,58.56l9.88-17.26,15.37,64.54,10.1-17.65,16.28,51.73,9.71-16.96,26.24,47.8,6.62-15.87,30.85,37.31,4.15-14.41,49.45,28.3-3.66-14.71Z"/>
        <path class="cls-10" d="m1342.43,691.3c-31.85,38.87-88.9,53.91-118.78,53.81.44,1.62.87,3.24,1.34,4.88h0s3.2,35.06,3.2,35.06c20.17-.65,44.13-5.63,66.56-14.22,15.09-5.78,33.08-14.49,50.18-27.22-3.14-17.34-3.75-34.9-2.5-52.32Z"/>
        <path class="cls-10" d="m1364.34,797.55c-3.68-6.46-6.79-13.03-9.48-19.66-29.29,33.27-79.74,47.22-106.66,46.86l7.4,31.08,10.1-17.65,7.73,24.55c32.47-4.98,71.64-19.75,101.29-47.69-3.31-5.36-6.76-11.12-10.38-17.49Z"/>
        <path class="cls-10" d="m1421.22,878.27c-6.69-8.93-15.11-18.29-25.64-32.41-22.13,30.78-60.98,49.09-88.47,55.19l10.81,19.69,6.62-15.87,21.52,26.03c26.62-10.45,54.41-27.71,75.15-52.64Z"/>
      </g>
      <g>
        <path class="cls-28" d="m768.83,582.7c-69.2,29.92-145.6,232.23,21.25,422.42,22.14,25.23,57.71,20.05,76.75,15.43,33.46-8.12,24.52,1.36,11.24-51.65-20.25-80.82-5.55-125.5,123.22-210.93,128.77-85.43-232.46-175.27-232.46-175.27Z"/>
        <path class="cls-10" d="m862.93,1003.84l10.49,18.17c3.89,6.74,12.52,9.05,19.26,5.16h0c6.74-3.89,9.05-12.52,5.16-19.26l-10.49-18.18c-3.89-6.74-12.52-9.05-19.26-5.16h0c-6.74,3.89-9.05,12.52-5.16,19.26Z"/>
        <path class="cls-10" d="m837.79,1010.76l12,17.22c4.45,6.39,13.24,7.96,19.63,3.5h0c6.39-4.45,7.96-13.24,3.5-19.63l-12-17.22c-4.45-6.39-13.24-7.96-19.63-3.5h0c-6.39,4.45-7.96,13.24-3.5,19.63Z"/>
        <path class="cls-10" d="m812.32,1020.29l15.63,14.01c5.8,5.2,14.71,4.71,19.91-1.09h0c5.2-5.8,4.71-14.71-1.09-19.91l-15.63-14.01c-5.8-5.2-14.71-4.71-19.91,1.09h0c-5.2,5.8-4.71,14.71,1.09,19.91Z"/>
      </g>
      <path class="cls-16" d="m1273.55,889.28h0c-3.53-29.23,1.88-58.81,15.4-84.97,46.16-89.31,115.45-261.29-36.54-409.06-200.09-194.53-348.31-31.5-420.56,53.73,0,0,152.85,222.32,239.97,314.03,87.13,91.71,86.19,238.46,86.19,238.46,0,0,63.88,16.37,93.52,1.04-1.22-7.26-2.02-15.59-2.44-24.55l12.26,6.62-9.77-34.24,10.96,4.21-11.01-44.84h0s13.97,15.47,13.97,15.47l-8.05-54.32h0l16.1,18.43Z"/>
      <path class="cls-23" d="m1022.11,738.97c-14.53-31.24-54.98-63.04-90.24-81.71-80.13,25.1-111.89,44.69-109.71,106.19,45.14,53.4,48,151.04,48.45,155.09-.22-52.83,31.17-94.55,130.68-160.57,9.53-6.32,16.31-12.67,20.82-19Z"/>
      <g>
        <path class="cls-28" d="m1166.63,801.02s-64.18-181.7-187.42-260.79c0,0-313.6,137.54-143.72,234.17,134.32,76.4,148.36,215.53,89.61,256.25-44.91,31.13-13.34,40.02,20.12,48.14,19.04,4.62,39.17-.76,53.28-14.35,87.12-83.87,126.68-161.69,137.49-230.41h0s19.39,20.53,19.39,20.53l-18.08-82.1,29.31,28.57Z"/>
        <path class="cls-10" d="m918.37,1057.74l-15.63,14.01c-5.8,5.2-14.71,4.71-19.91-1.09h0c-5.2-5.8-4.71-14.71,1.09-19.91l15.63-14.01c5.8-5.2,14.71-4.71,19.91,1.09h0c5.2,5.8,4.71,14.71-1.09,19.91Z"/>
        <path class="cls-10" d="m940.28,1066.51l-15.63,14.01c-5.8,5.2-14.71,4.71-19.91-1.09h0c-5.2-5.8-4.71-14.71,1.09-19.91l15.63-14.01c5.8-5.2,14.71-4.71,19.91,1.09h0c5.2,5.8,4.71,14.71-1.09,19.91Z"/>
        <path class="cls-10" d="m965.56,1071.94l-15.63,14.01c-5.8,5.2-14.71,4.71-19.91-1.09h0c-5.2-5.8-4.71-14.71,1.09-19.91l15.63-14.01c5.8-5.2,14.71-4.71,19.91,1.09h0c5.2,5.8,4.71,14.71-1.09,19.91Z"/>
      </g>
      <g>
        <path class="cls-22" d="m1140.6,968.57c-20.04-.41-64.07,7.45-58.35,63.16,77.82,27.62,169.27-29.2,169.27-29.2,0,0-19.12-32.09-110.92-33.95Z"/>
        <path class="cls-10" d="m1074.83,1038.32h0c-5.74-2.54-8.33-9.24-5.79-14.98l7.13-16.13c2.54-5.74,9.24-8.33,14.98-5.79h0c5.74,2.54,8.33,9.24,5.79,14.98l-7.13,16.13c-2.54,5.74-9.24,8.33-14.98,5.79Z"/>
        <path class="cls-10" d="m1111.44,1047.57h0c-5.43-3.14-7.29-10.08-4.16-15.52l8.82-15.28c3.14-5.43,10.08-7.29,15.52-4.16h0c5.43,3.14,7.29,10.08,4.16,15.52l-8.82,15.28c-3.14,5.43-10.08,7.29-15.52,4.16Z"/>
        <path class="cls-10" d="m1094.91,1043.69h0c-5.87-2.2-8.85-8.75-6.64-14.63l6.2-16.51c2.2-5.87,8.75-8.85,14.63-6.64h0c5.87,2.2,8.85,8.75,6.64,14.63l-6.2,16.51c-2.2,5.87-8.75,8.85-14.63,6.64Z"/>
      </g>
      <g>
        <path class="cls-4" d="m856.8,712.59c-4.05-15.57,7.91-32.16,26.72-37.06,18.81-4.89,37.34,3.76,41.39,19.34,4.05,15.57-7.91,32.16-26.72,37.06-18.81,4.89-37.34-3.76-41.39-19.33Z"/>
        <path class="cls-14" d="m1045.17,562.53c7.35,5.25,14.69,15.75,20.92,26.58,1.98-8.61,2.78-17.61,2.38-26.86-10.73-13.47-23.56-29.66-28.72-36.56,8.41,3.22,18.1,11.47,26.83,20.33-15.43-80.01-186.53-123.64-244.98-108.43-58.44,15.21-182.09,131.69-161.04,214.02,3.3-11.98,7.74-23.88,13.5-30.77-1.19,8.82-4.68,30.3-7.54,47.61,4.01,8.68,9.21,16.4,15.44,23.09.02-13.27,1.21-27.17,5.33-35.89,1.01,8.31,2.87,27.98,4.41,44.83,31.73,24.94,82.24,28.68,139.22,2.51,19.32-8.5,52.91-26.27,52.91-26.27,0,0,37.99-.85,59.01-2.85,63.91-5.04,104.56-33.6,119.4-72.15-6.64-14.97-14.05-31.8-17.07-39.2Z"/>
        <path class="cls-13" d="m1045.17,562.53c7.35,5.25,14.69,15.75,20.92,26.58,1.98-8.61,2.78-17.61,2.38-26.86-10.73-13.47-23.56-29.66-28.72-36.56,8.41,3.22,18.1,11.47,26.83,20.33-15.43-80.01-186.53-123.64-244.98-108.43-58.44,15.21-182.09,131.69-161.04,214.02,3.3-11.98,7.74-23.88,13.5-30.77-3.64,15.19-9.29,29.28-7.54,47.61,4.01,8.68,9.21,16.4,15.44,23.09.02-13.27,1.21-27.17,5.33-35.89,1.01,8.31,2.87,27.98,4.41,44.83,31.73,24.94,82.24,28.68,139.22,2.51,19.32-8.5,52.91-26.27,52.91-26.27,0,0,37.99-.85,59.01-2.85,63.91-5.04,104.56-33.6,119.4-72.15-6.64-14.97-14.05-31.8-17.07-39.2Z"/>
        <path class="cls-4" d="m977.18,524.6c-92.93-25.14-115.57-8.93-116.8,62-35.65-61.34-63.32-64.46-132.21,2.79-17.69,17.27-61.49,45.52-49.52,98.38,36.46,43.44,95.28,41.39,152.26,15.22,19.32-8.5,52.91-26.27,52.91-26.27,0,0,37.99-.85,59.01-2.85,62.51-4.93,114.87-31.8,125.53-87.51-15.31-51.99-67.33-55.31-91.19-61.77Z"/>
        <path class="cls-4" d="m795.71,484.05c-.57-24.77-107.13-78.16-109.31-22.27-2.16,55.33,16.55,98.02,37.88,89.49,40.7-16.26,72-42.82,71.44-67.22Z"/>
        <path class="cls-15" d="m759.84,509.95c-5.57-20.09-55.36-41.87-55.36-41.87,0,0-6.45,49.96,17.93,58.21,24.38,8.25,37.43-16.34,37.43-16.34Z"/>
        <path class="cls-4" d="m866.85,465.54c-11.58-21.91,55.45-120.46,84.59-72.73,28.86,47.26,33.33,93.65,10.55,96.6-43.46,5.64-83.74-2.29-95.14-23.87Z"/>
        <path class="cls-12" d="m851.79,609.68c-5.15-18.46-32.06-44.46-40.57-38.42-8.5,6.03-109.87,81.04-74.91,121.97,34.97,40.92,111.34-15.77,111.34-15.77l4.13-67.77Z"/>
        <path class="cls-12" d="m879.12,602.57c-4.5-18.63,6.33-54.45,16.69-53.32,10.37,1.12,135.44,17.21,124.86,69.99-10.58,52.78-104.91,40.5-104.91,40.5l-36.64-57.16Z"/>
        <path class="cls-15" d="m910.8,470.66c-4.92-20.26,27.93-63.54,27.93-63.54,0,0,29.99,40.48,12.72,59.56-17.27,19.08-40.65,3.98-40.65,3.98Z"/>
        <path class="cls-31" d="m916.08,722.06c7.67-7.42,11.35-17.5,8.83-27.19-4.05-15.57-22.58-24.23-41.39-19.34-18.81,4.89-30.77,21.49-26.72,37.06,2.79,10.73,12.47,18.18,24.36,20.17,5.53-1.82,11.37-4.35,17.49-7.68,6.37-.77,12.17-1.78,17.42-3.02Z"/>
        <path class="cls-4" d="m930.63,648.34c-34.47-25.58-70.25-61.73-70.25-61.73,0,0-13.63,49.01-31.25,88.14-19.37,43.02,13.36,77.01,68.2,47.16,68.27-8.21,71.19-45.46,33.3-73.58Z"/>
        <path class="cls-35" d="m855.68,696.33c-3.71-14.24,7.23-29.42,24.43-33.89,17.2-4.48,34.15,3.44,37.86,17.68,3.71,14.24-7.23,29.42-24.43,33.89-17.2,4.48-34.15-3.44-37.86-17.68Z"/>
        <path class="cls-33" d="m805.53,614.78c-1.87-7.19,2.44-14.53,9.63-16.4,7.19-1.87,14.53,2.44,16.4,9.63,1.87,7.19-2.44,14.53-9.63,16.4-7.19,1.87-14.53-2.44-16.4-9.63Z"/>
        <path class="cls-36" d="m817.11,608.75c-.68-2.6.88-5.26,3.48-5.94,2.6-.68,5.26.88,5.94,3.48.68,2.6-.88,5.26-3.49,5.94-2.6.68-5.26-.88-5.94-3.48Z"/>
        <path class="cls-33" d="m922,584.47c-1.87-7.19-9.21-11.5-16.4-9.63-7.19,1.87-11.5,9.21-9.63,16.4,1.87,7.19,9.21,11.5,16.4,9.63,7.19-1.87,11.5-9.21,9.63-16.4Z"/>
        <path class="cls-36" d="m917.68,582.58c-.68-2.6-3.33-4.16-5.94-3.48-2.6.68-4.16,3.33-3.48,5.94.68,2.6,3.33,4.16,5.94,3.48,2.6-.68,4.16-3.33,3.48-5.94Z"/>
        <path class="cls-28" d="m692.29,701.08c3.97,3.4,8.29,6.39,13.24,8.9-4.62-8.17-9.88-20.09-9.34-35.48-3.15,4.84-6.05,17.12-3.9,26.59Z"/>
        <path class="cls-28" d="m1062.25,606.38c-2.2-9.79-11.45-19.94-16.82-22.77,8.4,13.88,9.29,27.56,9.13,37.03,3.1-4.43,5.61-9.18,7.69-14.26Z"/>
      </g>
    </g>
  </g>
  <g>
    <g>
      <path class="cls-22" d="m196.28,1823.32h.03c-10.79-4.11-21.15-9.72-30.91-17.1,37.63-55.88,47.26-33.3,129.51-85.53,82.25-52.23,91.23-162.96,95.15-231.94,0,0,89.52,133.96,83.92,185.09-2.2,20.09-17.44,44.98-40.7,69.03h.01s-30.63,46.85-30.63,46.85l-.61-18.92-41.72,47.41-.62-19.35-36.77,36.23-.59-18.59-43.39,28.48,1.51-16.3-42.58,17.61,2.94-13.97-54.2,1.73,9.64-10.74Z"/>
      <path class="cls-10" d="m360.73,1641.13c9.44,46.9,50.7,84.99,75.85,98.24-1.09,1.17-2.18,2.34-3.31,3.5h.01s-18.34,28.05-18.34,28.05c-16.67-9.55-34.59-24.43-49.62-41.65-10.11-11.59-21.35-26.95-30.05-45.27,10.38-13.18,18.73-27.67,25.45-42.87Z"/>
      <path class="cls-10" d="m294.91,1720.7c5.98-3.79,11.52-7.93,16.75-12.3,9.79,41.04,45.98,75.28,68.77,86.99l-20.09,22.83-.62-19.35-17.45,17.19c-25.08-18.68-51.42-48.57-63.89-85.29,5.18-3.03,10.65-6.34,16.53-10.07Z"/>
      <path class="cls-10" d="m211.07,1763.18c9.61-4.52,20.86-8.64,36.01-15.81,4.87,35.75,29.37,68.48,49.76,85.87l-17.88,11.73,1.51-16.3-29.7,12.28c-17.72-20.66-33.39-47.57-39.7-77.79Z"/>
    </g>
    <g>
      <path class="cls-21" d="m896.12,1503.29c61.79,26.72,130.01,207.37-18.97,377.2-19.77,22.53-51.53,17.9-68.54,13.78-29.88-7.25-21.89,1.21-10.03-46.12,18.08-72.17,4.95-112.07-110.03-188.35-114.98-76.28,207.57-156.51,207.57-156.51Z"/>
      <path class="cls-19" d="m812.09,1879.35l-9.37,16.23c-3.48,6.02-11.18,8.09-17.2,4.61h0c-6.02-3.48-8.08-11.18-4.61-17.2l9.37-16.23c3.48-6.02,11.18-8.08,17.2-4.61h0c6.02,3.48,8.09,11.18,4.61,17.2Z"/>
      <path class="cls-19" d="m834.54,1885.53l-10.72,15.37c-3.98,5.7-11.82,7.11-17.53,3.13h0c-5.7-3.98-7.11-11.82-3.13-17.53l10.72-15.37c3.98-5.7,11.82-7.11,17.53-3.13h0c5.7,3.98,7.11,11.82,3.13,17.53Z"/>
      <path class="cls-19" d="m857.29,1894.04l-13.95,12.51c-5.18,4.64-13.14,4.21-17.78-.97h0c-4.64-5.18-4.21-13.14.97-17.78l13.95-12.51c5.18-4.64,13.14-4.21,17.78.97h0c4.64,5.18,4.21,13.14-.97,17.78Z"/>
    </g>
    <path class="cls-11" d="m445.43,1777.06h0c3.15-26.1,2.04-54.85-13.75-75.87-66.09-87.99-103.09-233.32,32.63-365.27,178.67-173.71,311.02-28.12,375.54,47.98,0,0-136.48,198.52-214.28,280.41-77.8,81.89-86.22,208.96-86.22,208.96,0,0-47.78,18.59-74.25,4.9,1.09-6.48,1.8-13.92,2.18-21.92l-10.95,5.91,10.9-38.2h0s-11.96,11.38-11.96,11.38l9.83-40.04h0s-12.48,13.81-12.48,13.81l7.19-48.5h0l-14.38,16.45Z"/>
    <path class="cls-34" d="m669.95,1642.84c12.98-27.89,49.1-56.29,80.58-72.96,71.55,22.42,99.91,39.9,97.97,94.82-40.3,47.68-42.86,134.87-43.26,138.49.19-47.17-27.84-84.43-116.69-143.38-8.51-5.65-14.57-11.31-18.59-16.97Z"/>
    <g>
      <path class="cls-21" d="m540.9,1698.24s57.31-162.25,167.36-232.87c0,0,280.03,122.81,128.33,209.1-119.94,68.22-132.47,192.46-80.02,228.82,40.1,27.8,11.91,35.74-17.97,42.99-17,4.12-34.97-.68-47.58-12.82-77.79-74.89-113.12-144.38-122.77-205.74h0s-17.32,18.33-17.32,18.33l16.14-73.31-26.17,25.51Z"/>
      <path class="cls-19" d="m762.59,1927.48l13.95,12.51c5.18,4.64,13.14,4.21,17.78-.97h0c4.64-5.18,4.21-13.14-.97-17.78l-13.95-12.51c-5.18-4.64-13.14-4.21-17.78.97h0c-4.64,5.18-4.21,13.14.97,17.78Z"/>
      <path class="cls-19" d="m743.02,1935.31l13.95,12.51c5.18,4.64,13.14,4.21,17.78-.97h0c4.64-5.18,4.21-13.14-.97-17.78l-13.95-12.51c-5.18-4.64-13.14-4.21-17.78.97h0c-4.64,5.18-4.21,13.14.97,17.78Z"/>
      <path class="cls-19" d="m720.45,1940.16l13.95,12.51c5.18,4.64,13.14,4.21,17.78-.97h0c4.64-5.18,4.21-13.14-.97-17.78l-13.95-12.51c-5.18-4.64-13.14-4.21-17.78.97h0c-4.64,5.18-4.21,13.14.97,17.78Z"/>
    </g>
    <g>
      <path class="cls-22" d="m564.15,1847.85c17.89-.36,57.21,6.66,52.11,56.4-69.49,24.67-151.15-26.08-151.15-26.08,0,0,17.08-28.66,99.04-30.32Z"/>
      <path class="cls-19" d="m622.87,1910.14h0c5.12-2.27,7.44-8.25,5.17-13.38l-6.37-14.41c-2.26-5.12-8.25-7.44-13.38-5.17h0c-5.12,2.26-7.44,8.26-5.17,13.38l6.37,14.41c2.27,5.12,8.26,7.44,13.38,5.17Z"/>
      <path class="cls-19" d="m590.19,1918.4h0c4.85-2.8,6.51-9,3.71-13.86l-7.88-13.64c-2.8-4.85-9-6.51-13.86-3.71h0c-4.85,2.8-6.51,9-3.71,13.86l7.88,13.64c2.8,4.85,9,6.51,13.86,3.71Z"/>
      <path class="cls-19" d="m604.94,1914.93h0c5.24-1.97,7.9-7.82,5.93-13.06l-5.53-14.75c-1.97-5.24-7.82-7.9-13.06-5.93h0c-5.24,1.97-7.9,7.82-5.93,13.06l5.53,14.75c1.97,5.25,7.82,7.9,13.06,5.93Z"/>
    </g>
    <g>
      <path class="cls-4" d="m848.3,1613.3c.05-14.67-14.28-26.61-32-26.67-17.72-.06-32.12,11.79-32.17,26.46-.05,14.67,14.28,26.61,32,26.67,17.72.06,32.12-11.79,32.17-26.46Z"/>
      <path class="cls-14" d="m647.92,1523.49c-5.3,6.31-9.4,17.24-12.45,28.21-3.7-7.16-6.45-14.92-8.2-23.18,6.43-14.33,14.08-31.54,17.08-38.8-6.69,4.75-13.39,14.23-19.09,24.04-4.52-74.16,136.69-151.48,191.76-151.3,55.06.18,190.67,75.01,190.75,152.49-5.63-9.83-12.25-19.33-18.9-24.12,3.05,7.52,11,25.7,17.46,40.34-1.58,8.57-4.41,16.57-8.4,23.89-3.02-11.71-7.23-23.72-12.85-30.49.99,7.57,3.81,25.36,6.27,40.59-22.37,29.22-66.12,43.98-122.38,33.79-18.99-3.13-52.69-11.2-52.69-11.2,0,0-33.74,7.86-52.76,10.86-57.58,10.04-99.96-5.96-121.81-36.64,2.47-14.73,5.19-31.27,6.19-38.49Z"/>
      <path class="cls-21" d="m647.92,1523.49c-5.3,6.31-9.4,17.24-12.45,28.21-3.7-7.16-6.45-14.92-8.2-23.18,6.43-14.33,14.08-31.54,17.08-38.8-6.69,4.75-13.39,14.23-19.09,24.04-4.52-74.16,136.69-151.48,191.76-151.3,55.06.18,190.67,75.01,190.75,152.49-5.63-9.83-12.25-19.33-18.9-24.12,6.66,12.59,14.84,23.75,17.46,40.34-1.58,8.57-4.41,16.57-8.4,23.89-3.02-11.71-7.23-23.72-12.85-30.49.99,7.57,3.81,25.36,6.27,40.59-22.37,29.22-66.12,43.98-122.38,33.79-18.99-3.13-52.69-11.2-52.69-11.2,0,0-33.74,7.86-52.76,10.86-57.58,10.04-99.96-5.96-121.81-36.64,2.47-14.73,5.19-31.27,6.19-38.49Z"/>
      <path class="cls-4" d="m699.37,1474.58c76.36-43.28,100.04-34.09,117.21,28.27,17.57-62.25,41.3-71.28,117.39-27.51,19.54,11.24,64.62,26.26,66.04,75.65-22.35,46.64-74.76,58.16-131.02,47.97-18.99-3.13-52.69-11.2-52.69-11.2,0,0-33.74,7.86-52.76,10.86-56.32,9.82-108.65-2.04-130.7-48.82,1.73-49.39,46.91-64.11,66.53-75.22Z"/>
      <path class="cls-4" d="m850.43,1397.62c-5.11-22,76.89-93.31,91.49-44.46,14.45,48.37,7.61,90.31-13.16,87.62-39.63-5.13-73.29-21.49-78.33-43.17Z"/>
      <path class="cls-15" d="m887.98,1412.35c.37-19,39.39-49.53,39.39-49.53,0,0,17.03,42.66-2.63,55.47-19.66,12.81-36.76-5.94-36.76-5.94Z"/>
      <path class="cls-4" d="m783.4,1397.4c5.26-21.97-76.28-93.81-91.2-45.05-14.77,48.28-8.2,90.26,12.59,87.71,39.66-4.88,73.43-21.01,78.61-42.66Z"/>
      <path class="cls-12" d="m829.39,1521.28c.36-17.47,18.24-46.53,27.11-43.13,8.88,3.4,115.41,46.66,93.81,90.73-21.6,44.07-101.9,11.32-101.9,11.32l-19.02-58.91Z"/>
      <path class="cls-12" d="m803.64,1521.2c-.25-17.47-17.93-46.65-26.83-43.31-8.9,3.34-115.71,45.91-94.39,90.12,21.31,44.21,101.83,11.98,101.83,11.98l19.4-58.79Z"/>
      <path class="cls-15" d="m745.76,1411.89c-.25-19-39.07-49.78-39.07-49.78,0,0-17.3,42.55,2.27,55.49,19.58,12.94,36.8-5.7,36.8-5.7Z"/>
      <path class="cls-27" d="m848.3,1613.3c.05-14.67-14.28-26.61-32-26.67-17.72-.06-32.12,11.79-32.17,26.46-.03,8.62,4.91,16.3,12.58,21.18,4.07,0,9.72.33,17.91-.56,9.69,1.69,14.05,1.87,18.37,2.15,9.15-4.65,15.27-13,15.3-22.55Z"/>
      <path class="cls-4" d="m768.53,1573.3c24.64-30.41,48.04-70.45,48.04-70.45,0,0,23.15,40.19,47.59,70.76,26.87,33.6,5.66,71.04-49.54,57.12-62.16,8.23-73.18-24-46.1-57.43Z"/>
      <path class="cls-35" d="m845.61,1598.68c.04-13.42-13.06-24.34-29.26-24.39-16.21-.05-29.38,10.78-29.42,24.2-.04,13.42,13.06,24.34,29.26,24.39,16.21.05,29.38-10.78,29.42-24.2Z"/>
      <path class="cls-33" d="m871.4,1515.29c.02-6.77-5.45-12.28-12.22-12.3-6.77-.02-12.28,5.45-12.3,12.22-.02,6.77,5.45,12.28,12.22,12.3,6.77.02,12.28-5.45,12.3-12.22Z"/>
      <path class="cls-36" d="m859.81,1512.59c0-2.45-1.97-4.44-4.42-4.45-2.45,0-4.44,1.97-4.45,4.42,0,2.45,1.97,4.44,4.42,4.45,2.45,0,4.44-1.97,4.45-4.42Z"/>
      <path class="cls-33" d="m761.67,1514.93c.02-6.77,5.53-12.24,12.3-12.22,6.77.02,12.24,5.53,12.22,12.3-.02,6.77-5.53,12.24-12.3,12.22-6.77-.02-12.24-5.53-12.22-12.3Z"/>
      <path class="cls-36" d="m765.06,1512.29c0-2.45,2-4.43,4.45-4.42s4.43,2,4.42,4.45c0,2.45-2,4.43-4.45,4.42s-4.43-2-4.42-4.45Z"/>
      <path class="cls-21" d="m990.97,1565.83c-2.83,3.98-5.95,7.65-9.68,10.87,2.22-8.26,4.18-20,.21-33.46,3.88,3.56,9.23,13.74,9.47,22.59Z"/>
      <path class="cls-21" d="m642.78,1566.09c-.27-9.14,5.59-20.2,9.69-23.92-4.27,14.16-1.94,26.47.36,34.8-3.8-3.29-7.1-6.91-10.05-10.87Z"/>
    </g>
  </g>
  <g>
    <path class="cls-5" d="m1375.96,1004.55l56.83-16.56,263.17,903.16-56.83,16.56c-84.56,24.64-212.03-157.56-284.7-406.96-72.67-249.4-63.03-471.55,21.53-496.19Z"/>
    <ellipse class="cls-18" cx="1564.38" cy="1439.57" rx="159.48" ry="470.36" transform="translate(-340.26 495.12) rotate(-16.25)"/>
    <polygon class="cls-3" points="1672.49 1523.42 1621.62 1320.44 1634.74 1328.05 1695.46 1536.41 1672.49 1523.42"/>
    <polygon class="cls-17" points="1695.46 1536.41 1665.53 1593.65 1649.08 1592.05 1672.06 1522.93 1695.46 1536.41"/>
    <polygon class="cls-26" points="1677.25 1539.76 1682.36 1528.91 1652.09 1425.03 1621.62 1320.44 1559.84 1285.77 1566.3 1307.95 1603.78 1329.17 1633.31 1430.51 1662.83 1531.85 1642.62 1569.87 1649.08 1592.05 1677.25 1539.76"/>
  </g>
  <g>
    <path class="cls-6" d="m1339.22,1956.73c-5.76,0-11.51-.62-17.2-2.02-39.92-9.84-87.27-27.34-99.11-75.75-1.1-4.48-2.2-9.01-3.29-13.55-.77-3.22,1.21-6.46,4.43-7.24,3.23-.77,6.46,1.21,7.24,4.43,1.09,4.52,2.18,9.04,3.28,13.5,10.25,41.92,51.42,57.37,90.33,66.95,26.48,6.53,56.72-7.59,81.01-18.94,5.39-2.52,10.48-4.89,15.21-6.89,18.46-7.81,38.18-1.13,54.04,4.24,7.39,2.5,15.03,5.08,18.56,4.43,3.26-.6,6.39,1.55,6.99,4.81.6,3.26-1.55,6.39-4.81,6.99-6.61,1.23-14.95-1.6-24.6-4.87-13.92-4.71-31.26-10.58-45.51-4.55-4.52,1.92-9.52,4.25-14.81,6.71-21.17,9.88-46.56,21.73-71.77,21.74Z"/>
    <path class="cls-29" d="m1205.37,1777.31c38.44,17.31,40.45,48.46,58.04,85.14,17.59,36.68,68.59,59.29,99.74,51.25,31.15-8.04,61.81-26.63,94.47-12.56,32.66,14.07,50.75,28.14,37.18,30.65-13.57,2.51-45.22-20.1-71.35-9.04-26.13,11.05-65.32,34.67-100,26.13-34.67-8.54-83.16-24.12-94.72-71.35-11.56-47.23-23.37-100.22-23.37-100.22Z"/>
    <path class="cls-29" d="m1191.8,1856.42c-10.05,18.59-48.24,28.64-65.83,14.07-17.59-14.57-28.14.14-14.57,14.89,13.57,14.76,51.25,31.34,80.4,10.23,29.14-21.1,0-39.19,0-39.19Z"/>
    <path class="cls-8" d="m1184.19,1965.68c-24.06,11.1-54.24,4.5-75.81.75-21.57-3.75-35.55,25.05-45.62,26.13-2.13.23-3.73,1.38-4.37.07.23,2.6,2.01,4.08,5.62,4.37,10.1.82,28.78-27.62,42.92-24.44,24.88,5.61,64.42,10.77,83.89-8.46.23-.23.52-.4.78-.6-2.35,1.28-5.1,1.13-7.4,2.19Z"/>
    <path class="cls-9" d="m1204.65,1776.39c-24.15,21.24-27.16,37.82-20.38,96.24,4.48,38.57-14.94,71.11-38.87,71.46-23.93.35-51.2-9.32-68.42,12.12-17.22,21.44-24.56,39.2-14.48,38.12s23.62-30.27,45.2-26.52c21.57,3.75,52.85,10.28,76.91-.81,25.67-11.84,56.57-36.71,50.01-96.26-5.26-47.68-29.96-94.36-29.96-94.36Z"/>
    <path class="cls-20" d="m1204.64,1775.03c-2.31.22-8.69,5.64-13.57,16.03,6.07,4.94,25.11,2.55,31.78-3.14-9.45-9.59-15.74-13.13-18.22-12.89Z"/>
  </g>
</svg>